<svg xmlns="http://www.w3.org/2000/svg" xmlns:xlink="http://www.w3.org/1999/xlink" width="1200" height="1200" viewBox="0 0 1200 1200"><g><g transform="translate(600 600) scale(0.69 0.69) rotate(0) translate(-600 -600)" style="fill:#a9abab"><svg fill="#a9abab" xmlns:x="http://ns.adobe.com/Extensibility/1.0/" xmlns:i="http://ns.adobe.com/AdobeIllustrator/10.0/" xmlns:graph="http://ns.adobe.com/Graphs/1.0/" xmlns="http://www.w3.org/2000/svg" xmlns:xlink="http://www.w3.org/1999/xlink" version="1.1" x="0px" y="0px" viewBox="0 0 100 100" style="enable-background:new 0 0 100 100;" xml:space="preserve"><g><g i:extraneous="self"><path d="M50,2.5C23.8,2.5,2.5,23.8,2.5,50S23.8,97.5,50,97.5c26.2,0,47.5-21.3,47.5-47.5S76.2,2.5,50,2.5z M67.7,59.4    c2.3,2.3,2.3,6,0,8.3c-1.1,1.1-2.6,1.7-4.1,1.7c-1.5,0-3-0.6-4.1-1.7L50,58.3l-9.4,9.4c-1.1,1.1-2.6,1.7-4.1,1.7s-3-0.6-4.1-1.7    c-2.3-2.3-2.3-6,0-8.3l9.4-9.4l-9.4-9.4c-2.3-2.3-2.3-6,0-8.3c2.3-2.3,6-2.3,8.3,0l9.4,9.4l9.4-9.4c2.3-2.3,6-2.3,8.3,0    c2.3,2.3,2.3,6,0,8.3L58.3,50L67.7,59.4z"></path></g></g></svg></g></g></svg>